<svg width="20" height="20" viewBox="0 0 20 20" fill="none" xmlns="http://www.w3.org/2000/svg">
<path d="M4.6 2.80001H19.4C19.7314 2.80001 20 3.06865 20 3.40001C20 3.73138 19.7314 4.00001 19.4 4.00001H4.6C4.26863 4.00001 4 3.73138 4 3.40001C4 3.06865 4.26863 2.80001 4.6 2.80001ZM4.6 7.20001H19.4C19.7314 7.20001 20 7.46865 20 7.80001C20 8.13138 19.7314 8.40001 19.4 8.40001H4.6C4.26863 8.40001 4 8.13138 4 7.80001C4 7.46865 4.26863 7.20001 4.6 7.20001ZM4.6 11.8H19.4C19.7314 11.8 20 12.0686 20 12.4C20 12.7314 19.7314 13 19.4 13H4.6C4.26863 13 4 12.7314 4 12.4C4 12.0686 4.26863 11.8 4.6 11.8ZM4.6 16.2H19.4C19.7314 16.2 20 16.4686 20 16.8C20 17.1314 19.7314 17.4 19.4 17.4H4.6C4.26863 17.4 4 17.1314 4 16.8C4 16.4686 4.26863 16.2 4.6 16.2ZM1.2 4.60001C0.537266 4.60001 0 4.06275 0 3.40001C0 2.73728 0.537266 2.20001 1.2 2.20001C1.86273 2.20001 2.4 2.73728 2.4 3.40001C2.4 4.06275 1.86273 4.60001 1.2 4.60001ZM1.2 9.00001C0.537266 9.00001 0 8.46275 0 7.80001C0 7.13728 0.537266 6.60001 1.2 6.60001C1.86273 6.60001 2.4 7.13728 2.4 7.80001C2.4 8.46275 1.86273 9.00001 1.2 9.00001ZM1.2 13.6C0.537266 13.6 0 13.0627 0 12.4C0 11.7373 0.537266 11.2 1.2 11.2C1.86273 11.2 2.4 11.7373 2.4 12.4C2.4 13.0627 1.86273 13.6 1.2 13.6ZM1.2 18C0.537266 18 0 17.4627 0 16.8C0 16.1373 0.537266 15.6 1.2 15.6C1.86273 15.6 2.4 16.1373 2.4 16.8C2.4 17.4627 1.86273 18 1.2 18Z" fill="#2D4AA6"/>
</svg>
