<svg width="20" height="20" viewBox="0 0 24 24" fill="none" xmlns="http://www.w3.org/2000/svg">
<path d="M12 12.9414C11.943 12.9414 11.8866 12.9288 11.8308 12.9042L3.26037 9.06899C3.09897 8.99699 2.99637 8.83199 2.99997 8.64779C3.00357 8.46599 3.11457 8.30099 3.27597 8.23799L11.8476 4.82939C11.8968 4.81019 11.9478 4.79999 12 4.79999C12.0516 4.79999 12.1032 4.81019 12.1524 4.82939L20.7234 8.23679C20.8884 8.30279 20.9964 8.46359 21 8.64659C21.0048 8.83139 20.9022 8.99699 20.7396 9.06899L12.1686 12.906C12.1152 12.9294 12.0576 12.9414 12 12.9414ZM4.57557 8.68079L11.979 11.994L19.4244 8.68079L12 5.72939L4.57557 8.68079Z" fill="#2D4AA6"/>
<path d="M3.2604 12.294C3.0438 12.1962 2.9424 11.9316 3.0348 11.7042C3.1026 11.5392 3.258 11.4318 3.4302 11.4318C3.4884 11.4318 3.5448 11.4444 3.5994 11.469L11.9796 15.2184L20.4018 11.469C20.457 11.4438 20.5134 11.4318 20.5716 11.4318C20.7432 11.4318 20.898 11.538 20.9652 11.7042C21.0582 11.9316 20.9568 12.1962 20.7396 12.294L12 16.2048L3.2604 12.294Z" fill="#2D4AA6"/>
<path d="M3.26037 15.288C3.04317 15.1896 2.94177 14.9256 3.03477 14.6994C3.10257 14.5344 3.25797 14.427 3.43017 14.427C3.48837 14.427 3.54477 14.4396 3.59937 14.4636L11.9796 18.2136L20.4018 14.4636C20.4558 14.4402 20.5134 14.427 20.5716 14.427C20.7432 14.427 20.898 14.5344 20.9652 14.6994C21.0582 14.9262 20.9568 15.1908 20.7402 15.288L12 19.2L3.26037 15.288Z" fill="#2D4AA6"/>
</svg>
