<svg width="20" height="20" viewBox="0 0 20 20" fill="none" xmlns="http://www.w3.org/2000/svg">
<path d="M7.5 8.33334L10.2151 10.3697C10.5638 10.6312 11.0552 10.5798 11.3422 10.2518L16.6667 4.16667" stroke="#2D4AA6" stroke-linecap="round"/>
<path d="M17.5 10C17.5 11.5671 17.0092 13.0948 16.0963 14.3686C15.1836 15.6424 13.8947 16.5983 12.4108 17.102C10.9269 17.6057 9.3225 17.6319 7.82287 17.1771C6.32327 16.7222 5.00383 15.8089 4.04985 14.5658C3.09588 13.3225 2.55529 11.8117 2.50402 10.2454C2.45274 8.67917 2.89336 7.1362 3.76398 5.83323C4.6346 4.53025 5.89149 3.53271 7.35813 2.98071C8.82475 2.4287 10.4275 2.34997 11.9412 2.75556" stroke="#2D4AA6" stroke-linecap="round"/>
</svg>
