<svg width="20" height="20" viewBox="0 0 22 22" fill="none" xmlns="http://www.w3.org/2000/svg">
<path d="M11 4.33333V1M11 4.33333C7.31811 4.33333 4.33333 7.3181 4.33333 11M11 4.33333C14.6819 4.33333 17.6667 7.3181 17.6667 11M4.33333 11C4.33333 14.6819 7.31811 17.6667 11 17.6667M4.33333 11H1M17.6667 11H21M17.6667 11C17.6667 14.6819 14.6819 17.6667 11 17.6667M11 17.6667V21M15.714 6.28596L18.0711 3.92893M3.92894 18.0711L6.28597 15.714M15.714 15.7138L18.0711 18.0709M3.92897 3.92889L6.28599 6.28591" stroke="#2D4AA6" stroke-linecap="round" stroke-linejoin="round"/>
</svg>
