<svg width="20" height="20" viewBox="0 0 11 14" fill="none" xmlns="http://www.w3.org/2000/svg">
    <path
        d="M1 8.2V2.2L2.58829 1.90352C3.64934 1.70546 4.74921 1.7997 5.75386 2.17478L5.88481 2.22366C6.88838 2.59833 7.993 2.66831 9.04163 2.42362C9.52846 2.31003 10 2.65368 10 3.12201V7.54222C10 7.9288 9.71811 8.26576 9.31626 8.35954L9.17843 8.3917C8.04083 8.65714 6.84261 8.58124 5.75386 8.1748C4.74921 7.79968 3.64934 7.70548 2.58829 7.90354L1 8.2Z"
        fill="#2D4AA6" />
    <path
        d="M1 13V8.2M1 8.2V2.2M1 8.2L2.58829 7.90354C3.64934 7.70548 4.74921 7.79968 5.75386 8.1748C6.84261 8.58124 8.04083 8.65714 9.17843 8.3917L9.31626 8.35954C9.71811 8.26576 10 7.9288 10 7.54222V3.12201C10 2.65368 9.52846 2.31003 9.04163 2.42362C7.993 2.66831 6.88838 2.59833 5.88481 2.22366L5.75386 2.17478C4.74921 1.7997 3.64934 1.70546 2.58829 1.90352L1 2.2M1 2.2V1"
        stroke="#2D4AA6" stroke-linecap="round" />
</svg>